<?xml version="1.0" encoding="utf-8"?>
<!-- Generator: Adobe Illustrator 16.0.4, SVG Export Plug-In . SVG Version: 6.00 Build 0)  -->
<!DOCTYPE svg PUBLIC "-//W3C//DTD SVG 1.1//EN" "http://www.w3.org/Graphics/SVG/1.1/DTD/svg11.dtd">
<svg version="1.1" xmlns="http://www.w3.org/2000/svg" xmlns:xlink="http://www.w3.org/1999/xlink" x="0px" y="0px"
	 width="599.97px" height="249.986px" viewBox="0 0 599.97 249.986" enable-background="new 0 0 599.97 249.986"
	 xml:space="preserve">
<g id="Layer_1">
	<g>
		<path fill="#FFFFFF" d="M94.198,51.147v15.92h0.289c3.02-6.133,6.72-10.662,11.102-13.582c4.384-2.924,9.935-4.287,16.65-4.089
			V62.54c-4.961,0-9.2,0.684-12.703,2.048c-3.507,1.362-6.332,3.355-8.472,5.983c-2.147,2.631-3.705,5.824-4.675,9.572
			c-0.975,3.748-1.463,8.055-1.463,12.926v33.591H82.514V51.147H94.198z"/>
		<path fill="#FFFFFF" d="M185.778,121.842c-5.646,4.288-12.759,6.427-21.324,6.427c-6.039,0-11.27-0.975-15.699-2.924
			c-4.435-1.941-8.157-4.672-11.173-8.178c-3.02-3.503-5.286-7.691-6.797-12.561c-1.509-4.866-2.361-10.175-2.555-15.92
			c0-5.746,0.879-11.004,2.63-15.778c1.752-4.771,4.209-8.907,7.378-12.414c3.162-3.507,6.911-6.232,11.245-8.183
			c4.332-1.94,9.077-2.915,14.24-2.915c6.721,0,12.292,1.387,16.725,4.159c4.431,2.774,7.983,6.309,10.664,10.588
			c2.678,4.287,4.527,8.963,5.549,14.027c1.024,5.062,1.436,9.881,1.242,14.458h-56.526c-0.099,3.312,0.294,6.454,1.17,9.422
			c0.874,2.972,2.285,5.599,4.234,7.89c1.946,2.289,4.431,4.111,7.45,5.476c3.019,1.362,6.573,2.044,10.662,2.044
			c5.258,0,9.569-1.217,12.929-3.653c3.359-2.433,5.571-6.134,6.641-11.099h12.274C195.077,111.18,191.428,117.56,185.778,121.842z
			 M182.787,73.349c-1.122-2.627-2.627-4.895-4.529-6.792c-1.898-1.897-4.141-3.407-6.721-4.529c-2.578-1.117-5.429-1.68-8.542-1.68
			c-3.218,0-6.113,0.562-8.693,1.68c-2.578,1.122-4.793,2.655-6.645,4.604c-1.851,1.949-3.312,4.209-4.383,6.791
			c-1.073,2.58-1.704,5.33-1.897,8.25h43.379C184.562,78.753,183.904,75.975,182.787,73.349z"/>
		<path fill="#FFFFFF" d="M233.687,22.374v39.289h0.439c2.627-4.382,5.986-7.568,10.08-9.564c4.089-1.997,8.079-2.996,11.975-2.996
			c5.551,0,10.104,0.754,13.656,2.263c3.555,1.51,6.355,3.603,8.399,6.28c2.046,2.678,3.479,5.943,4.309,9.787
			c0.829,3.851,1.245,8.106,1.245,12.782v46.445h-20.745V84.011c0-6.229-0.973-10.881-2.919-13.947
			c-1.949-3.066-5.405-4.604-10.373-4.604c-5.646,0-9.735,1.681-12.268,5.04c-2.536,3.36-3.799,8.888-3.799,16.578v39.583h-20.742
			V22.374H233.687z"/>
		<path fill="#FFFFFF" d="M301.606,39.459V22.374h20.743v17.085H301.606z M322.35,51.147v75.513h-20.743V51.147H322.35z"/>
		<path fill="#FFFFFF" d="M358.861,126.66l-25.853-75.513h21.765l15.92,51.561h0.293l15.921-51.561h20.595l-25.56,75.513H358.861z"
			/>
		<path fill="#FFFFFF" d="M439.783,108.554c3.114,3.019,7.596,4.523,13.436,4.523c4.188,0,7.79-1.045,10.81-3.137
			c3.019-2.094,4.87-4.312,5.551-6.649h18.258c-2.92,9.058-7.4,15.532-13.435,19.427c-6.04,3.895-13.346,5.844-21.913,5.844
			c-5.939,0-11.296-0.95-16.065-2.848c-4.771-1.898-8.812-4.602-12.125-8.107c-3.309-3.507-5.864-7.69-7.666-12.564
			c-1.804-4.865-2.703-10.223-2.703-16.062c0-5.65,0.923-10.904,2.773-15.777c1.85-4.867,4.481-9.078,7.889-12.633
			c3.407-3.558,7.473-6.355,12.195-8.399c4.725-2.044,9.958-3.067,15.702-3.067c6.428,0,12.027,1.24,16.801,3.725
			c4.767,2.48,8.689,5.816,11.756,10.006c3.068,4.188,5.283,8.958,6.646,14.314c1.363,5.357,1.85,10.952,1.461,16.797h-54.481
			C434.961,100.66,436.664,105.533,439.783,108.554z M463.229,68.819c-2.484-2.727-6.261-4.089-11.32-4.089
			c-3.313,0-6.062,0.562-8.254,1.68c-2.192,1.121-3.941,2.508-5.259,4.161c-1.315,1.66-2.242,3.415-2.776,5.261
			c-0.535,1.851-0.852,3.503-0.948,4.966h33.739C467.436,75.539,465.709,71.546,463.229,68.819z"/>
	</g>
	<polygon fill="#F8CF51" points="460.803,213.415 440.132,178.917 460.803,144.415 502.146,144.415 522.813,178.917 
		502.146,213.415 	"/>
	<path fill="#F8CF51" d="M567.377,116.222l15.958,26.096l-15.697,26.098h-32.127l-15.829-26l15.829-26h30.165 M572.246,107.415
		h-41.343l-20.671,34.5l20.671,34.5h41.343l20.671-34.5L572.246,107.415L572.246,107.415z"/>
</g>
<g id="Layer_2">
</g>
</svg>
